<?xml version="1.0" encoding="UTF-8"?>
<svg id="Layer_1" xmlns="http://www.w3.org/2000/svg" version="1.1" xmlns:cc="http://creativecommons.org/ns#" xmlns:dc="http://purl.org/dc/elements/1.1/" xmlns:inkscape="http://www.inkscape.org/namespaces/inkscape" xmlns:rdf="http://www.w3.org/1999/02/22-rdf-syntax-ns#" xmlns:sodipodi="http://sodipodi.sourceforge.net/DTD/sodipodi-0.dtd" xmlns:svg="http://www.w3.org/2000/svg" viewBox="0 0 306.9 48.5">
  <!-- Generator: Adobe Illustrator 29.8.1, SVG Export Plug-In . SVG Version: 2.1.1 Build 2)  -->
  <defs>
    <style>
      .st0 {
        fill: #417eaf;
      }

      .st1 {
        fill: #9ac7f4;
      }
    </style>
  </defs>
  <g>
    <path class="st0" d="M134.3-6.8c-.2,0-.4,0-.5,0,.1,0,.4,0,.5,0Z"/>
    <path class="st0" d="M19.4,23.6h-.2S7.6,11.3,7.6,11.3c-.3-.4.3-.3.5-.6,1.1-1,.6-3.1-.7-3.4-2-.5-3.2,1.7-2,3.2.3.4.8.3.5.9L0,17.7v5.6l6.8-7,7.6,8.1-7.6,8.2c-.2,0-2.5-2.9-3-3-.4,0-2.2,2.3-2.6,2.7l4.9,5.4c-1.8,1-1.5,3.9.7,3.9,2.1,0,2.5-3,.7-3.9l11.5-12.2c.4-.4.5.3.8.6.8.7,2.2.5,2.8-.4,1.5-2.4-2.1-4.6-3.2-1.9Z"/>
    <path class="st0" d="M302,11.2c1.6-.7,1.7-3.5-.1-3.9-2.4-.5-3.4,2.5-1.3,3.8v.2s-11.5,12.3-11.5,12.3h-.2c-1.1-2.6-4.7-.6-3.2,1.9.6.9,2,1.2,2.8.4.3-.3.4-.9.7-.7l11.5,12.2v.2c-2,1.1-1.2,4.2,1.2,3.8,1.9-.4,1.9-3,.3-3.9l4.9-5.2v-5.6l-5.6,5.7-7.6-8.2,7.6-8.1,2.9,3,2.8-2.7v-.2l-4.9-5.2Z"/>
    <path class="st0" d="M6.9,25.2c.4,1.5,2.5,1.5,3.2.3,1.5-2.4-2.1-4.6-3.2-1.9h-.2c-.4-.1-2-2.3-2.5-2.7-.2-.1-.2-.2-.4-.1-.2,0-2.4,2.4-2.4,2.5-.2.5.7.8.7,1.2,0,.2-1.6,1.7-1.9,2v5.6l6.7-6.9h.2Z"/>
    <path class="st0" d="M300.6,22.7c-3.1-1.8-4.1,4.6-.3,3.6.6-.2,1.1-1.1,1.3-1,.4,0,2.3,2.8,2.9,2.9l2.6-2.7v-.2c-.9-.6-.9-1,0-1.6v-5.6l-5.5,5.6c-.2,0-.5-.7-.9-.9Z"/>
    <path class="st0" d="M181.9,10.8c4.8,2.3,7,10.1,13.3,9.1-.1,1,.2,1.9.5,2.9,1.3-.4,2.4-1.2,3.2-2.2.8.5,1.2,1.3,2.1,1.8,3,1.7,8.2-.1,7.9-4.3-.3-4.3-6-3.3-5,.9-2.1,0-2.5-2-1.7-3.8,1.6-3.7,7.4-2.8,9.9-.7l8.8,9.3c.3,0,2.4-2.4,2.7-2.8v-.3c-4.4-3.9-8.2-10.4-14-11.7-3-.7-6.6-.4-9,1.8-1.1,1.1-1.8,2.6-2.8,3.6-1.1,1.1-2.5,1.9-4.1,1.6-1.1-.2-1.9-1.1-2-2.3-.2-2.2.4-.9,1.5-.8,2.9.5,3.8-3.7,1.3-5-2.1-1.1-4.7.1-5.8,2.2-.3.5-.6,2-.7,2.1,0,0-.2,0-.3-.1-.3-.2-.5-.8-.9-1.1-1.1-1-3-1.7-4.4-1.7-.3,0-2.8.5-2.9.6-.4.4.8.3.9.4.5.1,1.1.4,1.5.6Z"/>
    <path class="st0" d="M28.4,10.8c4.8,2.2,7.1,10.3,13.4,9.1-.4,1,0,1.9.3,2.9.2.2,3.2-1.6,3.1-2.4,1.7,2,3.3,2.9,5.9,2.5,1.8-.3,3.9-1.9,4.1-3.9.6-5-5.9-4.9-4.9,0-3.6-.3-2.2-5,.5-5.9,3.1-1.1,6.1,0,8.4,2.1,2.8,2.6,5.3,6,8.1,8.6l2.7-2.8-5.5-6c-3.9-4.7-9.6-8.3-15.6-5.6-2.7,1.2-3.1,3.3-4.9,5.1-1.4,1.4-4.3,2.5-5.6.3-.3-.6-.4-1.4-.3-2,.1-.7.9.1,1.5.2,3.2.5,3.9-4.7.5-5.3-2.9-.6-5.3,1.5-5.7,4.6-.2.2-.8-.8-1-1-1.2-1.1-3-1.9-4.6-1.8-.3,0-2.8.5-2.9.6-.3.3,0,.3.2.3.8.2,1.4.3,2.2.7Z"/>
    <path class="st0" d="M268.2,28.7c0-.9,0-1.9-.5-2.7-1.3.4-2.3,1.4-3.3,2.2-2-3.6-8.3-3.2-9.6.8-1.7,5.1,5.8,6.2,4.7.8,1.9-.1,2.5,1.6,2,3.3-1,3.2-4.5,3.4-7.1,2.7-1.5-.4-2.9-1.4-4.1-2.5-2.7-2.5-5.1-5.8-7.8-8.3-.2,0-2.6,2.5-2.6,2.8v.3c5.9,5.7,11.1,14.6,20.4,11.5,3.4-1.1,3.6-3.8,6-5.7,2.5-2,6.1-1.3,5.4,2.6-4.2-2.8-6,4.2-1.6,4.8,2.9.4,4.9-2,5.5-4.8l1.5,1.7c1.9,1.5,5,1.7,7,.5-6.9-.8-8.4-10.7-15.9-10Z"/>
    <path class="st0" d="M130.2,38.6c-.8-.3-1.6-.4-2.4-.8-3.4-1.7-5.1-6-8.4-8-1.4-.9-3-1.2-4.7-1.1.1-.5-.1-2.5-.5-2.7-.4-.3-2.9,1.8-3.4,2.2-1.4-2.1-3.8-2.9-6.2-2.3-2.3.7-4.5,3.2-3.3,5.8,1.4,3.3,5.7,1.3,4.6-2,3.4,0,2.2,4.7,0,5.8-3.1,1.5-6.8,0-9.2-2.3-2.7-2.5-5.1-5.8-7.8-8.3-.2,0-2.6,2.5-2.6,2.8v.3c5.9,5.7,11.1,14.6,20.4,11.5,3.4-1.1,3.6-3.9,6-5.7,2.6-2,6-1.3,5.4,2.6-4.3-2.9-6,4.4-1.4,4.8,2.6.2,4.9-1.9,5.2-4.6.2-.2,1.5,1.4,1.7,1.6,2,1.6,4.5,1.3,6.8.7,0-.4,0-.3-.2-.3Z"/>
    <path class="st0" d="M148.6,37.6l11.5-12.3c.3-.2.4.3.7.6.9.9,2.6.6,3.1-.7.9-2.4-2.5-3.9-3.4-1.5h-.2c-.4-.1-2-2.3-2.5-2.7-.2-.1-.2-.2-.4-.1-.2,0-2.5,2.5-2.5,2.6,0,.4.9.7.7,1.2l-7.5,8-7.6-8.2,7.6-8.1c.5.4,2.6,3,2.9,3,.2,0,2.5-2.2,2.6-2.4,0-.3,0-.5-.1-.7l-4.7-4.9c2.1-1.2,1.3-4.4-1.2-3.9-1.8.4-1.7,3.1-.1,3.9l-11.6,12.4h-.2c-.6-1.9-3.3-1.5-3.6.4-.3,1.9,1.8,3,3.2,1.8.2-.2.3-.8.7-.6l11.5,12.2v.2c-1.9,1-1.3,4,.9,3.8,2-.2,2.3-3,.5-3.9Z"/>
    <path class="st0" d="M173.6,22.7c-.4.3-.6,1.1-1,.9l-11.5-12.3c1.8-.9,1.6-3.8-.5-3.9-2.3-.1-2.8,2.9-.8,3.9l-11.5,12.3h-.3c-1-2.5-4.7-.5-3.3,1.9.5.9,1.3,1.1,2.3.9.5-.1,1-1.1,1.2-1.1.6.4,2.4,2.9,3,2.9.2,0,2.1-2.6,2.5-2.8,0-.2-.9-.7-.7-1l7.5-8c2.5,2.7,5.2,5.3,7.6,8.2l-7.6,8.1c-.2,0-2.5-2.9-3-3-.4,0-2.2,2.3-2.6,2.7l4.9,5.4c-1.9,1-1.5,3.9.7,3.9,2.2,0,2.5-3,.7-3.9l11.8-12.5c.3,1.7,2.7,1.7,3.4.3.9-1.8-1.1-3.7-2.7-2.7Z"/>
    <path class="st0" d="M63.2,34.9c-.1-.2-2.4-2.6-2.6-2.6-1.4,1.3-2.6,2.5-4.3,3.2-2.5.9-6.2,1-7.6-1.8-.9-1.7-.5-4.1,1.7-3.9-.9,3.1,3.1,5.2,4.6,2.2,1.4-2.8-.9-5.5-3.4-6.1-2.3-.6-4.7.3-6.1,2.3h-.1c-.2-.6-2.9-2.5-3.2-2.2-.2.9-.7,1.8-.3,2.7-.9,0-1.8,0-2.7.2-4.6,1-6.5,6.8-10.5,8.9-.8.4-1.7.7-2.6.8,2.4,1.3,5.4.9,7.5-1,.2-.2.8-1.3,1.1-1,.3,3,3.3,5.5,6.1,4.4,2.9-1.1,2.1-5.6-1-5.2-.5,0-.9.5-1.4.5-.4-4.3,3.5-4.3,5.9-2.1,1.1,1,1.7,2.6,2.8,3.7,3.4,3.3,9.2,2.6,12.9.3.7-.4,3-2.4,3.3-3,0-.2,0-.2,0-.3Z"/>
    <path class="st0" d="M216.7,34.9c-.1-.2-2.4-2.6-2.6-2.6-.9.7-1.6,1.6-2.6,2.3-2.2,1.4-5.1,2-7.6.9-2.3-1.1-3.5-5.7,0-5.7-.9,4.8,5.6,4.9,4.9-.2-.2-1.8-2.1-3.3-3.7-3.7-2.4-.6-4.6.3-6.1,2.3h-.1c-.2-.6-2.9-2.5-3.2-2.2-.2.9-.7,1.7-.3,2.7-.8,0-1.8,0-2.6.2-4.9,1-6.8,7.5-11.5,9.3-.6.2-1.2.4-1.8.5,1.2.8,3.1.9,4.5.6,1.6-.3,3-1.6,4-2.8.3,3.1,3.2,5.6,6.1,4.5,2.9-1,2.2-5.6-1-5.2-.5,0-.9.5-1.4.5-.4-4.2,3.5-4.4,5.9-2.1,1.1,1.1,1.8,2.6,2.8,3.7,3.9,3.8,10.7,2.4,14.5-.9.3-.2,1.6-1.6,1.7-1.8,0-.2,0-.2,0-.3Z"/>
    <path class="st0" d="M130.2,9.8c-2.1-1-5-.7-6.8.9-.2.2-1.3,1.6-1.5,1.4-.3-3.2-3.4-5.5-6.2-4.3-1.7.7-2.3,3.2-.9,4.5,1.2,1.1,2.1.6,3.4,0,.6,4-3,4.6-5.5,2.5-2.1-1.8-2.5-4.3-5.5-5.5-4.9-2-10.8.2-14,4.5.4.4,2.3,2.7,2.6,2.7,1.5-1.4,3-2.9,5-3.5,2.3-.7,5.8-.5,7,2,.9,1.8.5,4-1.7,4,1-3.1-2.8-5.1-4.4-2.4-1.4,2.4.3,5.1,2.5,6,2.7,1.1,5.3.2,7-2.2,0,.8,3,2.5,3.1,2.4.3-1,.6-1.8.5-2.9,6.4,1.1,8.6-7,13.5-9.2.5-.2,1-.4,1.5-.5.3,0,1.3,0,.5-.4Z"/>
    <path class="st0" d="M249.3,16.4c.2,0,.9-.9,1.1-1.2,2.5-2.2,5.7-3.4,8.9-2.1,2.3,1,3.6,5.9.1,5.9,1.1-4.8-5.4-4.8-4.9,0,.5,4.7,7.9,5.5,10,1.5.7,1.2,2,1.9,3.2,2.4.4-1,.5-1.8.5-2.9,6.4,1.1,8.5-6.9,13.4-9.1.7-.3,1.4-.4,2.1-.6.2,0,.5,0,.2-.3,0,0-1.3-.4-1.5-.4-2.7-.6-5.1.4-6.9,2.7-.4-.7-.5-1.5-.9-2.2-1.2-2.1-4.2-3.3-6.1-1.8-2.3,1.8-.6,5.6,2.1,4.6.4-.1.6-.5,1-.5.7,3.2-1.9,4.4-4.4,3.2-2.4-1.1-3.1-4.2-5.4-5.6-4.9-3-11.9-.8-15.2,3.9.5.4,2.3,2.7,2.7,2.6Z"/>
    <path class="st0" d="M77.5,35.7c0-.2-2.4-2.7-2.6-2.7l-3.5,3.7-11.4-12.1c-.3-.6,1.2-1.6,1.5-2,.2-.2,1.7-1.9,1.7-2.1-.7-.6-1.6-2-2.3-2.5-.1,0-.2-.2-.4-.1l-6.1,6.7,17,17.9,5.9-6.3c.1-.1.2-.3.1-.5Z"/>
    <path class="st0" d="M78.9,13.1c0,.3,2.2,2.2,2.6,2.6,1.1-1.1,2.1-2.3,3.3-3.3.2-.1,0-.4.3-.3l11.3,12v.4c0,0-3.3,3.4-3.3,3.4,0,.3,1.9,2.2,2.3,2.6,0,0,.1.3.2.4.2,0,.4,0,.5-.1,1.9-2.2,4.1-4.2,5.9-6.5l-17-18-5.9,6.3c-.1.1-.2.3-.1.5Z"/>
    <path class="st0" d="M235,15.8l3.4-3.6h.3l11.3,12v.4c-.3.5-3.3,3.3-3.3,3.6,0,.3,1.9,2.1,2.2,2.4,0,0,.1.3.2.4.2,0,.4,0,.5-.1,1.9-2.2,4.1-4.2,5.9-6.5l-17-18c-.7.9-6.2,6.2-6.1,6.8,0,.2,2.4,2.2,2.6,2.6Z"/>
    <path class="st0" d="M231,35.7c0-.2-2.4-2.7-2.6-2.7l-3.5,3.6-11.3-12.1v-.6c1-.8,2-1.7,2.7-2.7.2-.2.3-.5.5-.7,0-.2-2-2.4-2.3-2.6-.1,0-.2-.2-.4-.1l-5.9,6.2v.3s16.8,18,16.8,18l5.9-6.3c.1-.1.2-.3.1-.5Z"/>
    <path class="st0" d="M243,32.4c-.1,0-.2-.1-.3,0-.3,0-3.2,3.3-3.8,3.9,0,0-.1.2-.2.3h-.2s-10.8-11.5-10.8-11.5h-.2c-.4.2-2.6,2.5-2.6,2.7v.3c.1,0,13.6,14.3,13.6,14.3l6.9-7.3c0-.2-2.2-2.6-2.4-2.7Z"/>
    <path class="st0" d="M89.2,32.2l-4,4.5c-3.6-3.6-6.9-7.5-10.5-11.1-.2-.2-.3-.8-.8-.5l-2.4,2.5v.5s13.5,14.4,13.5,14.4l6.9-7.3c0-.2-2.5-2.9-2.8-2.9Z"/>
    <path class="st0" d="M218.3,13.9c.2.3,2.3,2.5,2.5,2.4l4.2-4.3,10.9,11.6c.1.1.2,0,.3,0,.2-.1,1.8-1.9,2-2.2.1-.2.3-.3.3-.5v-.3c-.1,0-13.5-14.3-13.5-14.3l-6.8,7.2c0,.2,0,.3,0,.4Z"/>
    <path class="st0" d="M64.8,13.9c.2.3,2.3,2.5,2.5,2.5l4.2-4.3,10.9,11.6c.1.1.2,0,.3,0,.2-.1,1.1-1.3,1.4-1.6.3-.3.8-.6,1-1.1v-.2s-13.6-14.4-13.6-14.4l-6.8,7.1c0,.2,0,.3.1.5Z"/>
    <path class="st0" d="M74.9,17.1l-10.2,10.8v.2c0,.2,2.1,2.6,2.3,2.7.7.4,9.3-10.1,10.6-11-.4-.3-2.5-2.8-2.7-2.8Z"/>
    <path class="st0" d="M218.2,27.9v.2c0,.2,2.1,2.6,2.3,2.7.6.4,9.1-9.9,10.4-10.8v-.2c0-.2-2.3-2.8-2.5-2.8l-10.2,10.8Z"/>
    <path class="st0" d="M242.6,17.9l-10.2,10.8c0,.1,0,.2,0,.3.3.7,2.1,1.9,2.6,2.7l10.3-11v-.3c-.6-.6-1.2-1.2-1.8-1.8-.2-.2-.4-.8-.9-.7Z"/>
    <path class="st0" d="M89.2,17.9l-10.2,10.8c0,.1,0,.2,0,.3.3.7,2.1,1.9,2.6,2.7l10.4-11.1c-.4-.3-2.5-2.8-2.7-2.8Z"/>
    <path class="st0" d="M245.2,10.7c2.2.2,2-3.4-.3-2.8-1.4.3-1.3,2.7.3,2.8Z"/>
    <path class="st0" d="M91.7,10.7c2.1.2,1.9-3.4-.3-2.8-1.4.3-1.3,2.7.3,2.8Z"/>
    <path class="st0" d="M217.6,38.2c-1.4.3-1.1,2.8.4,2.8,1.9,0,2.1-3.5-.4-2.8Z"/>
    <path class="st0" d="M91.3,38.1c-1.4.4-1,3.3.9,2.8,1.7-.5,1.1-3.4-.9-2.8Z"/>
    <path class="st0" d="M65.5,38.3c-2.5-1.4-3.1,2.8-.8,2.7,1.3,0,1.7-2.1.8-2.7Z"/>
    <path class="st0" d="M78.1,10.7c2.2.2,1.9-3.4-.3-2.8-1.3.3-1.2,2.7.3,2.8Z"/>
    <path class="st0" d="M244.7,38.2c-1.4.4-.9,3.3,1,2.8,1.6-.5,1.1-3.5-1-2.8Z"/>
    <path class="st0" d="M232.2,10.6c1.5-.5,1-3.2-1-2.8-1.5.4-1.1,3.4,1,2.8Z"/>
    <path class="st0" d="M232.6,38.3c-.6-.5-2-.2-2.2.7-.6,2.6,2.9,2.5,2.7.3,0-.2-.4-.9-.5-1Z"/>
    <path class="st0" d="M77.8,38.1c-1.2.3-1.3,2.5.2,2.8,2.2.4,2.2-3.4-.2-2.8Z"/>
    <path class="st0" d="M219.1,8.3c-1.3-1.6-3.3.8-2,2,1.2,1.2,3.2-.6,2-2Z"/>
    <path class="st0" d="M65.6,8.3c-1.3-1.6-3.3.8-2,2,1.2,1.2,3.2-.6,2-2Z"/>
  </g>
  <rect class="st1" x="-.2" y="2.7" width="307.8" height=".7"/>
  <rect class="st1" x="-.2" y="44.8" width="307.8" height=".7"/>
</svg>